#N canvas 1608 337 1085 1075 12;
#X obj 313 419 neuralnet;
#X obj 307 664 osc~;
#X obj 295 557 mtof;
#X obj 321 695 *~;
#X obj 318 775 dac~ 1 2;
#X obj 314 463 select 0 1 2 3;
#X obj 391 663 vline~;
#X msg 230 517 60;
#X msg 277 518 62;
#X msg 326 520 64;
#X obj 321 726 *~ 0.5;
#X obj 301 627 vline~;
#X msg 395 614 0 200;
#X obj 56 326 list trim;
#X obj 56 302 list prepend predict;
#X obj 55 49 r LSM9DS1fps;
#X obj 55 157 unpack 0 0 0;
#X text 160 49 fusion pose;
#X text 157 76 unit is Degrees (angle) - pitch limited to -/+90;
#X text 284 96 roll and yaw limited to -/+180;
#X text 151 123 roll (x) pitch (y) yaw (z also heading) as messages;
#X obj 57 268 pack f f f;
#X obj 55 192 abs;
#X obj 419 199 abs;
#X obj 56 231 maxlib/scale 0 180 0 1;
#X obj 421 231 maxlib/scale 0 180 0 1;
#X obj 234 231 maxlib/scale -90 90 0 1;
#X obj 371 335 loadbang;
#X msg 307 591 \$1 20;
#X msg 455 615 1 20;
#X text 598 227 converting IMU data to 0-1 range without discontinuities;
#X text 560 373 loading model and running inference;
#X msg 371 373 load my_class_model2.ann;
#X connect 0 0 5 0;
#X connect 1 0 3 0;
#X connect 2 0 28 0;
#X connect 3 0 10 0;
#X connect 5 0 12 0;
#X connect 5 1 29 0;
#X connect 5 1 7 0;
#X connect 5 2 29 0;
#X connect 5 2 8 0;
#X connect 5 3 29 0;
#X connect 5 3 9 0;
#X connect 6 0 3 1;
#X connect 7 0 2 0;
#X connect 8 0 2 0;
#X connect 9 0 2 0;
#X connect 10 0 4 1;
#X connect 10 0 4 0;
#X connect 11 0 1 0;
#X connect 12 0 6 0;
#X connect 13 0 0 0;
#X connect 14 0 13 0;
#X connect 15 0 16 0;
#X connect 16 0 22 0;
#X connect 16 1 26 0;
#X connect 16 2 23 0;
#X connect 21 0 14 0;
#X connect 22 0 24 0;
#X connect 23 0 25 0;
#X connect 24 0 21 0;
#X connect 25 0 21 2;
#X connect 26 0 21 1;
#X connect 27 0 32 0;
#X connect 28 0 11 0;
#X connect 29 0 6 0;
#X connect 32 0 0 0;
