#N canvas 305 284 1205 874 12;
#X obj 55 49 r LSM9DS1fps;
#X obj 55 125 unpack 0 0 0;
#X text 160 49 fusion pose;
#X text 157 76 unit is Degrees (angle) - pitch limited to -/+90;
#X text 284 96 roll and yaw limited to -/+180;
#X text 151 123 roll (x) pitch (y) yaw (z also heading) as messages;
#X obj 208 582 netsend -u;
#X obj 338 463 loadbang;
#X msg 338 537 connect 192.168.7.1 8001;
#X text 393 483 IP address may have to be changed to 192.186.6.1 on Windows computers, f 40;
#X obj 69 423 pack f f f;
#X obj 55 192 abs;
#X obj 419 199 abs;
#X obj 55 303 maxlib/scale 0 180 0 1;
#X obj 420 303 maxlib/scale 0 180 0 1;
#X obj 233 303 maxlib/scale -90 90 0 1;
#X text 600 298 converting IMU data to 0-1 range without discontinuities;
#X connect 0 0 1 0;
#X connect 1 0 11 0;
#X connect 1 1 15 0;
#X connect 1 2 12 0;
#X connect 7 0 8 0;
#X connect 8 0 6 0;
#X connect 10 0 6 0;
#X connect 11 0 13 0;
#X connect 12 0 14 0;
#X connect 13 0 10 0;
#X connect 14 0 10 2;
#X connect 15 0 10 1;
