#N canvas 1916 691 1085 812 12;
#X obj 46 39 netreceive -u 8001;
#X text 591 153 edit the path and load the model;
#X text 123 90 enable prediction;
#X obj 231 227 neuralnet;
#X obj 225 472 osc~;
#X obj 213 365 mtof;
#X obj 239 503 *~;
#X obj 236 583 dac~ 1 2;
#X obj 232 271 select 0 1 2 3;
#X obj 309 471 vline~;
#X msg 373 423 1 50;
#X msg 148 325 60;
#X msg 195 326 62;
#X msg 244 328 64;
#X obj 239 534 *~ 0.5;
#X obj 219 435 vline~;
#X msg 313 422 0 200;
#X msg 225 399 \$1 50;
#X obj 54 175 list trim;
#X obj 54 151 list prepend predict;
#X obj 54 119 spigot;
#X obj 93 89 tgl 19 0 empty empty empty 0 -10 0 12 #fcfcfc #000000 #000000 0 1;
#X msg 282 123 load /Users/stefanof/Desktop/MCT4054_W8-3/my_class_model.ann;
#X connect 0 0 20 0;
#X connect 3 0 8 0;
#X connect 4 0 6 0;
#X connect 5 0 17 0;
#X connect 6 0 14 0;
#X connect 8 0 16 0;
#X connect 8 1 10 0;
#X connect 8 1 11 0;
#X connect 8 2 10 0;
#X connect 8 2 12 0;
#X connect 8 3 10 0;
#X connect 8 3 13 0;
#X connect 9 0 6 1;
#X connect 10 0 9 0;
#X connect 11 0 5 0;
#X connect 12 0 5 0;
#X connect 13 0 5 0;
#X connect 14 0 7 1;
#X connect 14 0 7 0;
#X connect 15 0 4 0;
#X connect 16 0 9 0;
#X connect 17 0 15 0;
#X connect 18 0 3 0;
#X connect 19 0 18 0;
#X connect 20 0 19 0;
#X connect 21 0 20 1;
#X connect 22 0 3 0;
