#N canvas 46 35 927 331 12;
#X obj 342 149 s bela_setDigital;
#X obj 48 62 adc~ 3;
#N canvas 0 25 450 300 mapping 0;
#X obj 141 56 inlet~;
#X obj 140 176 outlet~;
#X obj 152 96 *~ 6143.99;
#X obj 146 134 +~ 50;
#X connect 0 0 2 0;
#X connect 2 0 3 0;
#X connect 3 0 1 0;
#X restore 48 108 pd mapping;
#X obj 342 61 loadbang;
#X obj 48 159 osc~;
#X obj 48 301 dac~ 1 2;
#X obj 48 241 *~;
#X text 104 61 from potentiometer;
#X text 127 108 mapping to 50-5000 hz;
#X msg 342 105 in 11;
#X text 254 201 from button used as binary amplitude;
#X obj 115 201 r bela_digitalIn11;
#X text 423 60 initialize Digital 0 as input message;
#X text 42 25 Use MomentaryButtonSPST&RotaryPotentiometer circuit;
#X connect 1 0 2 0;
#X connect 2 0 4 0;
#X connect 3 0 9 0;
#X connect 4 0 6 0;
#X connect 6 0 5 0;
#X connect 6 0 5 1;
#X connect 9 0 0 0;
#X connect 11 0 6 1;
