#N canvas 224 506 1498 642 12;
#X obj 714 154 s bela_setDigital;
#X obj 26 69 adc~ 3;
#N canvas 0 23 450 300 mapping 0;
#X obj 141 56 inlet~;
#X obj 140 176 outlet~;
#X obj 152 96 *~ 6143.99;
#X obj 146 134 +~ 50;
#X connect 0 0 2 0;
#X connect 2 0 3 0;
#X connect 3 0 1 0;
#X restore 37 434 pd mapping;
#X msg 714 110 in 11 ~;
#X obj 714 66 loadbang;
#X obj 37 485 osc~;
#X obj 37 617 dac~ 1 2;
#X obj 37 557 *~;
#X text 82 68 from potentiometer;
#X text 116 434 mapping to 50-5000 hz;
#X text 796 65 initialize Digital 0 (in 11) as input signal;
#X obj 37 374 emulation;
#X obj 100 94 adc~ 11;
#X text 160 93 from button used as binary amplitude;
#X text 55 403 lower resolution signals from potentiometer and button;
#X obj 192 128 loadbang;
#X msg 165 172 20;
#X msg 203 193 100;
#X msg 238 215 9;
#X text 223 169 I/O latency (ms) 0 to 1000;
#X text 252 193 sensor sampling rate (Hz) 1 to 44100;
#X text 276 215 sensor sampling resolution (bits) 1 to 16;
#X obj 249 316 route latency rate resolution;
#X obj 253 261 netreceive -u 8001;
#X obj 290 286 print received;
#X text 426 268 receive UDP messages from the PC to change some patch parameters, f 33;
#X text 24 23 Use MomentaryButtonSPST&RotaryPotentiometer circuit;
#X connect 1 0 11 0;
#X connect 2 0 5 0;
#X connect 3 0 0 0;
#X connect 4 0 3 0;
#X connect 5 0 7 0;
#X connect 7 0 6 0;
#X connect 7 0 6 1;
#X connect 11 0 2 0;
#X connect 11 1 7 1;
#X connect 12 0 11 1;
#X connect 15 0 16 0;
#X connect 15 0 17 0;
#X connect 15 0 18 0;
#X connect 16 0 11 2;
#X connect 17 0 11 3;
#X connect 18 0 11 4;
#X connect 22 0 11 2;
#X connect 22 1 11 3;
#X connect 22 2 11 4;
#X connect 23 0 22 0;
#X connect 23 0 24 0;
