#N canvas 650 25 1145 722 12;
#X obj 313 27 inlet~;
#X obj 318 427 outlet~;
#X obj 315 111 delread~ delLine2 20;
#X obj 523 26 inlet;
#X obj 313 68 delwrite~ delLine2 1000;
#X text 570 27 delay;
#X obj 640 27 inlet;
#X obj 852 30 inlet;
#X text 899 31 n_bits;
#X text 687 28 rate;
#X text 364 26 signal in2;
#X text 382 425 signal out2;
#X obj 21 28 inlet~;
#X obj 26 428 outlet~;
#X text 105 235 downsampling to 200 Hz;
#X text 72 27 signal in1;
#X text 90 426 signal out1;
#X obj 21 69 delwrite~ delLine1 1000;
#X obj 23 112 delread~ delLine1 20;
#X text 95 142 20ms delay;
#X text 384 137 20ms delay;
#X obj 642 60 / 44100;
#X text 109 256 decimating to 9 bit;
#X obj 26 206 cyclone/degrade~ 0.0022 9;
#X connect 0 0 4 0;
#X connect 2 0 1 0;
#X connect 3 0 2 0;
#X connect 3 0 18 0;
#X connect 6 0 21 0;
#X connect 7 0 23 2;
#X connect 12 0 17 0;
#X connect 18 0 23 0;
#X connect 21 0 23 1;
#X connect 23 0 13 0;
