#N canvas 1184 163 644 564 12;
#X obj 171 477 netsend -u;
#X msg 128 160 disconnect;
#X floatatom 250 173 5 0 1000 0 - - - 0;
#X floatatom 292 207 5 1 44100 0 - - - 0;
#X floatatom 339 236 5 1 16 0 - - - 0;
#X text 301 171 I/O latency (ms) 0 to 1000;
#X text 336 198 sensor sampling rate (Hz) 1 to 44100;
#X text 383 238 sensor sampling resolution (bits) 1 to 16;
#X obj 250 198 int;
#X obj 292 230 int;
#X obj 339 259 int;
#X msg 242 308 send latency \$1;
#X msg 289 342 send rate \$1;
#X msg 335 383 send resolution \$1;
#X obj 276 38 loadbang;
#X msg 249 82 20;
#X msg 287 103 100;
#X msg 322 125 9;
#X text 53 10 run this patch on the PC to change some internal parameter of the Patch running on Bela, f 26;
#X text 24 89 click connect before sending;
#X msg 66 112 connect bela.local 8001;
#X connect 1 0 0 0;
#X connect 2 0 8 0;
#X connect 3 0 9 0;
#X connect 4 0 10 0;
#X connect 8 0 11 0;
#X connect 9 0 12 0;
#X connect 10 0 13 0;
#X connect 11 0 0 0;
#X connect 12 0 0 0;
#X connect 13 0 0 0;
#X connect 14 0 15 0;
#X connect 14 0 16 0;
#X connect 14 0 17 0;
#X connect 15 0 2 0;
#X connect 16 0 3 0;
#X connect 17 0 4 0;
#X connect 20 0 0 0;
