#N canvas 600 63 1000 799 12;
#X obj 379 91 adc~ 3 4 5;
#X obj 276 357 bng 15 250 50 0 empty empty empty 17 7 0 10 #fcfcfc #000000 #000000;
#X obj 275 399 spigot;
#X obj 147 304 tgl 15 0 empty empty empty 17 7 0 10 #fcfcfc #000000 #000000 0 1;
#X text 145 279 start/stop recording;
#X obj 149 365 select 0;
#X msg 150 412 0;
#X floatatom 151 496 5 0 0 0 - - - 0;
#X obj 151 534 + 1;
#X msg 82 453 set \$1;
#X obj 512 618 textfile;
#X msg 513 582 clear;
#X msg 581 573 write output.txt;
#X obj 414 551 list prepend add;
#X obj 415 583 list trim;
#X obj 428 476 pack i f f f;
#X obj 689 75 loadbang;
#X obj 691 330 snapshot~;
#X obj 31 182 loadbang;
#X obj 54 839 print;
#X obj 34 598 del 1000;
#X msg 73 786 3s;
#X msg 149 787 2s;
#X msg 231 789 1s;
#X obj 70 738 del 1000;
#X obj 143 738 del 2000;
#X obj 219 738 del 3000;
#X obj 304 739 del 4000;
#X msg 317 791 Go;
#X obj 510 367 snapshot~;
#X obj 469 399 snapshot~;
#X obj 434 428 snapshot~;
#X msg 371 791 1;
#X msg 440 831 Recording complete;
#X msg 597 834 0;
#X msg 135 242 0;
#X obj 646 839 del 1000;
#X obj 691 293 metro 20;
#X text 512 645 writing to file;
#X text 260 710 automatic timing control;
#X text 156 452 generating time index;
#X msg 69 654 Saving data to text file for \$1 seconds \, Starting in;
#X text 575 723 recording time in seconds;
#X obj 499 758 * 1000;
#X obj 424 795 del;
#X msg 544 725 60;
#X text 41 22 record sensor data to text file for a given number of seconds;
#X text 361 199 smoothing the sensor signals;
#X msg 572 123 100;
#X msg 691 261 1;
#X obj 511 171 lop~;
#X obj 440 172 lop~;
#X obj 375 172 lop~;
#X connect 0 0 52 0;
#X connect 0 1 51 0;
#X connect 0 2 50 0;
#X connect 1 0 2 0;
#X connect 2 0 7 0;
#X connect 3 0 2 1;
#X connect 3 0 5 0;
#X connect 5 0 6 0;
#X connect 6 0 9 0;
#X connect 7 0 8 0;
#X connect 8 0 9 0;
#X connect 8 0 15 0;
#X connect 9 0 7 0;
#X connect 11 0 10 0;
#X connect 12 0 10 0;
#X connect 13 0 14 0;
#X connect 14 0 10 0;
#X connect 15 0 13 0;
#X connect 16 0 49 0;
#X connect 16 0 48 0;
#X connect 18 0 20 0;
#X connect 18 0 35 0;
#X connect 20 0 24 0;
#X connect 20 0 25 0;
#X connect 20 0 26 0;
#X connect 20 0 27 0;
#X connect 20 0 11 0;
#X connect 20 0 45 0;
#X connect 21 0 19 0;
#X connect 22 0 19 0;
#X connect 23 0 19 0;
#X connect 24 0 21 0;
#X connect 25 0 22 0;
#X connect 26 0 23 0;
#X connect 27 0 28 0;
#X connect 27 0 32 0;
#X connect 27 0 44 0;
#X connect 28 0 19 0;
#X connect 29 0 15 3;
#X connect 30 0 15 2;
#X connect 31 0 15 1;
#X connect 32 0 3 0;
#X connect 33 0 19 0;
#X connect 34 0 3 0;
#X connect 35 0 3 0;
#X connect 36 0 12 0;
#X connect 37 0 17 0;
#X connect 37 0 29 0;
#X connect 37 0 30 0;
#X connect 37 0 31 0;
#X connect 37 0 1 0;
#X connect 41 0 19 0;
#X connect 43 0 44 0;
#X connect 44 0 33 0;
#X connect 44 0 34 0;
#X connect 44 0 36 0;
#X connect 45 0 43 0;
#X connect 45 0 41 0;
#X connect 48 0 50 1;
#X connect 48 0 51 1;
#X connect 48 0 52 1;
#X connect 49 0 37 0;
#X connect 50 0 29 0;
#X connect 51 0 30 0;
#X connect 52 0 31 0;
