#N canvas 505 491 999 537 12;
#X obj 60 -171 adc~ 3 4 5;
#X obj 225 292 netsend -u;
#X obj 348 -161 loadbang;
#X obj 271 59 metro 20;
#X obj 76 131 snapshot~;
#X obj 172 121 snapshot~;
#X obj 259 118 snapshot~;
#X msg 264 229 connect 192.168.7.1 8001;
#X text 48 -18 smoothing the sensor signals;
#X msg 259 -94 100;
#X obj 198 -46 lop~;
#X obj 127 -45 lop~;
#X obj 62 -45 lop~;
#X text 319 175 IP address may have to be changed to 192.186.6.1 on Windows computers, f 39;
#X text 60 -203 sample seosor data every 20 ms and send to computer via UDP;
#X obj 130 203 pack f f f;
#X connect 0 0 12 0;
#X connect 0 1 11 0;
#X connect 0 2 10 0;
#X connect 2 0 3 0;
#X connect 2 0 7 0;
#X connect 2 0 9 0;
#X connect 3 0 4 0;
#X connect 3 0 5 0;
#X connect 3 0 6 0;
#X connect 4 0 15 0;
#X connect 5 0 15 1;
#X connect 6 0 15 2;
#X connect 7 0 1 0;
#X connect 9 0 10 1;
#X connect 9 0 11 1;
#X connect 9 0 12 1;
#X connect 10 0 6 0;
#X connect 11 0 5 0;
#X connect 12 0 4 0;
#X connect 15 0 1 0;
