#N canvas -1119 161 934 900 12;
#X obj 168 156 netreceive -u 8001;
#X obj 41 361 print;
#X obj 68 263 spigot;
#X obj 160 217 tgl 19 0 empty empty empty 0 -10 0 12 #fcfcfc #000000 #000000 0 1;
#X obj 54 195 list;
#X floatatom 104 82 5 20 200 0 - - - 0;
#X obj 436 610 textfile;
#X msg 437 574 clear;
#X msg 505 565 write output.txt;
#X obj 312 532 list prepend add;
#X obj 313 564 list trim;
#X obj 589 210 bng 15 250 50 0 empty empty empty 17 7 0 10 #fcfcfc #000000 #000000;
#X obj 588 252 spigot;
#X obj 460 157 tgl 15 0 empty empty empty 17 7 0 10 #fcfcfc #000000 #000000 0 1;
#X text 458 132 start/stop recording;
#X msg 463 265 0;
#X floatatom 464 349 5 0 0 0 - - - 0;
#X obj 464 387 + 1;
#X msg 395 306 set \$1;
#X text 516 348 generating time index;
#X text 187 217 print received values;
#X obj 46 34 loadbang;
#X obj 399 445 list prepend;
#X text 153 81 control incoming message arrival rate ms;
#X obj 44 113 metro 20;
#X obj 462 218 select 0 1;
#X obj 358 379 list;
#X obj 539 281 t b b;
#X text 638 563 write output file;
#X connect 0 0 4 1;
#X connect 2 0 1 0;
#X connect 3 0 2 1;
#X connect 4 0 2 0;
#X connect 4 0 26 1;
#X connect 5 0 24 1;
#X connect 7 0 6 0;
#X connect 8 0 6 0;
#X connect 9 0 10 0;
#X connect 10 0 6 0;
#X connect 11 0 12 0;
#X connect 12 0 27 0;
#X connect 13 0 12 1;
#X connect 13 0 25 0;
#X connect 15 0 18 0;
#X connect 16 0 17 0;
#X connect 17 0 18 0;
#X connect 17 0 22 1;
#X connect 18 0 16 0;
#X connect 21 0 24 0;
#X connect 22 0 9 0;
#X connect 24 0 4 0;
#X connect 24 0 11 0;
#X connect 25 0 15 0;
#X connect 25 1 7 0;
#X connect 26 0 22 0;
#X connect 27 0 26 0;
#X connect 27 1 16 0;
