#N canvas 925 328 1085 812 12;
#N canvas 813 59 559 362 synth 0;
#X floatatom 43 77 8 0 0 2 carrier - - 0;
#X obj 43 273 +~;
#X obj 43 296 osc~;
#X floatatom 122 77 8 0 0 2 mod1 - - 0;
#X obj 122 233 osc~;
#X obj 122 256 *~;
#X floatatom 202 77 8 0 0 2 index1 - - 0;
#X obj 202 216 pack f 20;
#X obj 202 239 line~;
#X obj 43 13 r carrier;
#X obj 122 209 +~;
#X floatatom 292 77 8 0 0 2 mod2 - - 0;
#X obj 292 169 osc~;
#X obj 292 192 *~;
#X obj 372 152 pack f 20;
#X obj 372 175 line~;
#X obj 122 13 r mod1;
#X obj 202 13 r index1;
#X obj 292 13 r mod2;
#X obj 372 13 r index2;
#X obj 43 319 outlet~;
#X obj 43 190 pack f 20;
#X obj 122 117 pack f 20;
#X obj 292 109 pack f 20;
#X obj 122 151 line~;
#X obj 43 220 line~;
#X obj 292 139 line~;
#X floatatom 372 77 8 0 0 2 index2 - - 0;
#X connect 0 0 21 0;
#X connect 1 0 2 0;
#X connect 2 0 20 0;
#X connect 3 0 22 0;
#X connect 4 0 5 0;
#X connect 5 0 1 1;
#X connect 6 0 7 0;
#X connect 7 0 8 0;
#X connect 8 0 5 1;
#X connect 9 0 0 0;
#X connect 10 0 4 0;
#X connect 11 0 23 0;
#X connect 12 0 13 0;
#X connect 13 0 10 1;
#X connect 14 0 15 0;
#X connect 15 0 13 1;
#X connect 16 0 3 0;
#X connect 17 0 6 0;
#X connect 18 0 11 0;
#X connect 19 0 27 0;
#X connect 21 0 25 0;
#X connect 22 0 24 0;
#X connect 23 0 26 0;
#X connect 24 0 10 0;
#X connect 25 0 1 0;
#X connect 26 0 12 0;
#X connect 27 0 14 0;
#X coords 0 -1 1 1 400 60 1 30 40;
#X restore 102 548 pd synth;
#X obj 107 482 s carrier;
#X obj 106 450 unpack f f f f f, f 47;
#X obj 186 479 s mod1;
#X obj 265 477 s index1;
#X obj 349 477 s mod2;
#X obj 427 478 s index2;
#X obj 102 625 *~ 0.3, f 7;
#X obj 102 662 dac~ 1 2;
#X text 513 313 ensure the model file is in the same project folder;
#X msg 324 316 load my_reg_model.ann;
#X obj 105 414 neuralnet;
#X obj 60 -171 adc~ 3 4 5;
#X obj 348 -161 loadbang;
#X obj 370 -72 metro 20;
#X obj 80 170 snapshot~;
#X obj 158 170 snapshot~;
#X obj 239 170 snapshot~;
#X obj 198 -46 lop~;
#X obj 127 -45 lop~;
#X obj 62 -45 lop~;
#X obj 134 242 pack f f f;
#X obj 54 26 clip~ 0 1;
#X obj 160 68 clip~ 0 1;
#X obj 261 120 clip~ 0 1;
#X text 450 19 smoothing the accelrometer sgnals and mapping (arbitrary) to the range 0-1, f 39;
#X text 324 161 sample accelerometer data every 20 ms and send to computer via UDP, f 35;
#X msg 259 -94 50;
#X obj 160 44 sfapdlib/scalesiglin~ 0.2 0.68 0 1;
#X obj 261 96 sfapdlib/scalesiglin~ 0.2 0.68 0 1;
#X obj 54 2 sfapdlib/scalesiglin~ 0.2 0.68 0 1;
#X obj 134 266 list prepend predict;
#X obj 134 290 list trim;
#X connect 0 0 7 0;
#X connect 2 0 1 0;
#X connect 2 1 3 0;
#X connect 2 2 4 0;
#X connect 2 3 5 0;
#X connect 2 4 6 0;
#X connect 7 0 8 0;
#X connect 7 0 8 1;
#X connect 10 0 11 0;
#X connect 11 0 2 0;
#X connect 12 0 20 0;
#X connect 12 1 19 0;
#X connect 12 2 18 0;
#X connect 13 0 14 0;
#X connect 13 0 27 0;
#X connect 13 0 10 0;
#X connect 14 0 15 0;
#X connect 14 0 16 0;
#X connect 14 0 17 0;
#X connect 15 0 21 0;
#X connect 16 0 21 1;
#X connect 17 0 21 2;
#X connect 18 0 29 0;
#X connect 19 0 28 0;
#X connect 20 0 30 0;
#X connect 21 0 31 0;
#X connect 22 0 15 0;
#X connect 23 0 16 0;
#X connect 24 0 17 0;
#X connect 27 0 18 1;
#X connect 27 0 19 1;
#X connect 27 0 20 1;
#X connect 28 0 23 0;
#X connect 29 0 24 0;
#X connect 30 0 22 0;
#X connect 31 0 32 0;
#X connect 32 0 11 0;
