#N canvas 1778 87 1087 705 12;
#X obj 60 -171 adc~ 3 4 5;
#X obj 231 403 netsend -u;
#X obj 348 -161 loadbang;
#X obj 370 -72 metro 20;
#X obj 82 242 snapshot~;
#X obj 160 242 snapshot~;
#X obj 241 242 snapshot~;
#X msg 270 340 connect 192.168.7.1 8001;
#X obj 198 -46 lop~;
#X obj 127 -45 lop~;
#X obj 62 -45 lop~;
#X text 339 294 IP address may have to be changed to 192.186.6.1 on Windows computers, f 39;
#X obj 136 314 pack f f f;
#X obj 402 182 dac~ 27 28 29;
#X obj 54 26 clip~ 0 1;
#X obj 160 68 clip~ 0 1;
#X obj 261 120 clip~ 0 1;
#X text 450 19 smoothing the accelrometer sgnals and mapping (arbitrary) to the range 0-1, f 39;
#X text 326 233 sample accelerometer data every 20 ms and send to computer via UDP, f 35;
#X msg 259 -94 50;
#X obj 160 44 sfapdlib/scalesiglin~ 0.2 0.68 0 1;
#X obj 261 96 sfapdlib/scalesiglin~ 0.2 0.68 0 1;
#X obj 54 2 sfapdlib/scalesiglin~ 0.2 0.68 0 1;
#X connect 0 0 10 0;
#X connect 0 1 9 0;
#X connect 0 2 8 0;
#X connect 2 0 3 0;
#X connect 2 0 7 0;
#X connect 2 0 19 0;
#X connect 3 0 4 0;
#X connect 3 0 5 0;
#X connect 3 0 6 0;
#X connect 4 0 12 0;
#X connect 5 0 12 1;
#X connect 6 0 12 2;
#X connect 7 0 1 0;
#X connect 8 0 21 0;
#X connect 9 0 20 0;
#X connect 10 0 22 0;
#X connect 12 0 1 0;
#X connect 14 0 4 0;
#X connect 14 0 13 0;
#X connect 15 0 5 0;
#X connect 15 0 13 1;
#X connect 16 0 6 0;
#X connect 16 0 13 2;
#X connect 19 0 8 1;
#X connect 19 0 9 1;
#X connect 19 0 10 1;
#X connect 20 0 15 0;
#X connect 21 0 16 0;
#X connect 22 0 14 0;
