#N canvas 376 364 1085 812 12;
#N canvas 813 59 559 362 synth 0;
#X floatatom 43 77 8 0 0 2 carrier - - 0;
#X obj 43 273 +~;
#X obj 43 296 osc~;
#X floatatom 122 77 8 0 0 2 mod1 - - 0;
#X obj 122 233 osc~;
#X obj 122 256 *~;
#X floatatom 202 77 8 0 0 2 index1 - - 0;
#X obj 202 216 pack f 20;
#X obj 202 239 line~;
#X obj 43 13 r carrier;
#X obj 122 209 +~;
#X floatatom 292 77 8 0 0 2 mod2 - - 0;
#X obj 292 169 osc~;
#X obj 292 192 *~;
#X obj 372 152 pack f 20;
#X obj 372 175 line~;
#X obj 122 13 r mod1;
#X obj 202 13 r index1;
#X obj 292 13 r mod2;
#X obj 372 13 r index2;
#X obj 43 319 outlet~;
#X obj 43 190 pack f 20;
#X obj 122 117 pack f 20;
#X obj 292 109 pack f 20;
#X obj 122 151 line~;
#X obj 43 220 line~;
#X obj 292 139 line~;
#X floatatom 372 77 8 0 0 2 index2 - - 0;
#X connect 0 0 21 0;
#X connect 1 0 2 0;
#X connect 2 0 20 0;
#X connect 3 0 22 0;
#X connect 4 0 5 0;
#X connect 5 0 1 1;
#X connect 6 0 7 0;
#X connect 7 0 8 0;
#X connect 8 0 5 1;
#X connect 9 0 0 0;
#X connect 10 0 4 0;
#X connect 11 0 23 0;
#X connect 12 0 13 0;
#X connect 13 0 10 1;
#X connect 14 0 15 0;
#X connect 15 0 13 1;
#X connect 16 0 3 0;
#X connect 17 0 6 0;
#X connect 18 0 11 0;
#X connect 19 0 27 0;
#X connect 21 0 25 0;
#X connect 22 0 24 0;
#X connect 23 0 26 0;
#X connect 24 0 10 0;
#X connect 25 0 1 0;
#X connect 26 0 12 0;
#X connect 27 0 14 0;
#X coords 0 -1 1 1 400 60 1 30 40;
#X restore 63 414 pd synth;
#X obj 62 336 s carrier;
#X obj 63 306 unpack f f f f f, f 47;
#X obj 143 337 s mod1;
#X obj 224 338 s index1;
#X obj 305 339 s mod2;
#X obj 386 339 s index2;
#X obj 63 183 spigot;
#X msg 63 216 predict \$1 \$2 \$3;
#X obj 63 90 netreceive -u 8001;
#X obj 63 491 *~ 0.3, f 7;
#X obj 105 147 tgl 19 0 empty empty empty 0 -10 0 12 #fcfcfc #000000 #000000 0 1;
#X text 652 80 edit the path and load the model;
#X text 131 147 enable prediction;
#X obj 63 528 dac~ 1 2;
#X msg 271 48 load /Users/stefanof/Desktop/MCT4054_W8-4/my_reg_model.ann;
#X obj 63 270 neuralnet;
#X connect 0 0 10 0;
#X connect 2 0 1 0;
#X connect 2 1 3 0;
#X connect 2 2 4 0;
#X connect 2 3 5 0;
#X connect 2 4 6 0;
#X connect 7 0 8 0;
#X connect 8 0 16 0;
#X connect 9 0 7 0;
#X connect 10 0 14 0;
#X connect 10 0 14 1;
#X connect 11 0 7 1;
#X connect 15 0 16 0;
#X connect 16 0 2 0;
